<?xml version="1.0" encoding="utf-8"?>
<!-- Generator: Adobe Illustrator 21.1.0, SVG Export Plug-In . SVG Version: 6.00 Build 0)  -->
<svg version="1.1" id="Layer_1" xmlns="http://www.w3.org/2000/svg" xmlns:xlink="http://www.w3.org/1999/xlink" x="0px" y="0px"
	 viewBox="0 0 340 91.1" style="enable-background:new 0 0 340 91.1;" xml:space="preserve">
<style type="text/css">
	.st0{fill:#009EDB;}
</style>
<path d="M176,51.7c2.9,8.8,8.7,16.2,17.3,19.6c-2.3,2.1-4.2,4.5-5.7,7.1c-6.7-3.2-11.6-8.7-15.1-15.5c-2.7,5.8-7.3,11.6-14.8,16.4
	c-1.8-2.3-3.9-4.3-6.3-6v5.2h-7.2V66.1L127,69.2l-1.7-8l4-0.5v-39h-3.1v-7.6H154v7.6h-2.6v35.5l5-0.8l0.6,7.3l-5.5,1v8.3
	c10.8-6.2,14.4-14.4,15.8-21.5h-12.6v-7.8h13.2v-10h-11.9v-7.7h7.8c-1.7-3.7-3.9-7.2-6.5-10.4l6.8-3.2c2.9,3.1,5.3,6.6,7.2,10.5
	l-6,3.2h8.3c2.5-4.3,4.5-8.9,6.2-13.6l8.6,2.2c-2,3.9-4.2,8-6.3,11.3h8.1v7.8h-13.4v10h15.6v7.8H176z M136.8,21.7v7.5h7.4v-7.5
	H136.8z M136.8,43.8h7.4v-7.6h-7.4V43.8z M144.2,58.4v-7.6h-7.4v8.8L144.2,58.4z M242.7,15l-2.4,3.2c8.2,7.6,17.9,13.3,28.4,16.9
	c-2.4,2.2-4.4,4.9-5.9,7.8c-3.4-1.7-7-3.4-10.3-5.3v4.7h-35.9v-3.5c-3.1,1.9-6.3,3.7-9.6,5.3c-1.7-2.9-3.8-5.5-6.2-7.8
	c13.2-5.3,26.8-14,34.3-25.2L242.7,15z M212,48.4h46.3v29.7h-9.1v-2.9h-28.4v3.2H212V48.4z M220.8,56v11.3h28.4V56H220.8z
	 M247.6,34.4c-4.5-3-8.6-6.5-12.5-10.3c-3.6,3.8-7.6,7.2-11.8,10.3H247.6z M340,14.2v64.2h-9.1v-3.6h-42.5v3.6h-8.7V14.2L340,14.2z
	 M330.9,67V22h-42.5v45H330.9z M328.4,55.9v7h-37.2v-7h14.4v-8.5h-11.8v-7.2h11.8v-6.8H292V26h35.2v7.5h-13.7v6.8h12.1v7.2h-4
	c2,2,3.8,4.1,5.4,6.4l-3.7,2.1L328.4,55.9z M313.6,55.9h7.2c-1.5-2.2-3.1-4.3-4.9-6.2l4.4-2.2h-6.7V55.9z"/>
<g>
	<g>
		<g>
			<g>
				<path class="st0" d="M86.4,83.1c-2.9,1.4-6.1,1.8-9.3,1.1c-2.2-0.5-4.2-1.2-6.2-2.1l-4.4-1.8c-3.8-1.2-7.9-1.3-11.8-0.3h-0.4
					c-3.9-1.1-8-1-11.8,0.3c-1.5,0.5-2.9,1.2-4.4,1.8c-2,0.9-4.1,1.7-6.2,2.2c-3.1,0.7-6.4,0.3-9.3-1.1l-0.4-0.2
					c-0.1,0-0.1,0-0.1,0.1c1.9,2,4.4,3.4,7,4.1c1.8,0.5,3.7,0.6,5.5,0.4c2.8-0.4,5.5-1.4,7.8-3l4.2-2.8c1.6-1,3.5-1.4,5.3-1
					c1,0.1,0.2,0.6,0.1,0.7c-2.5,1.2-4.9,2.7-7.1,4.4c-1.5,1.1-4.2,3.7-4.2,3.7l2,1.7l2.2-2.4c2.7-2.8,5.8-5.2,9.2-7.1
					c0.3-0.2,0.6-0.2,0.9,0c3.4,1.9,6.5,4.3,9.2,7.1l2.2,2.4l2-1.7l-4.2-3.7c-2.2-1.7-4.6-3.2-7.1-4.4c-0.2-0.1-0.9-0.6,0.1-0.7
					c1.8-0.4,3.7,0,5.3,1l4.2,2.8c2.3,1.6,5,2.6,7.8,3c1.8,0.2,3.7,0.1,5.5-0.4c2.6-0.8,5.1-2.2,7-4.1c0,0-0.1-0.1-0.2-0.1
					L86.4,83.1 M96.2,74.4c-1.3,1-2.7,1.7-4.2,2.2c-2.1,0.6-4.4,1-6.6,1c-2.9,0.1-5.7,0.3-8.6,0.7c-0.2,0-0.3,0-0.2-0.1
					c2.5-1,4.5-3,5.6-5.4l2.8-5.7c0-0.1,0-0.1,0-0.2c-0.2,0.1-3,2.5-4.3,3.7L76,75.2c-2.1,1.8-4.6,3.1-7.3,3.8h-0.1
					c0,0-0.1,0.1-0.1,0.1l5.4,1.3c2.3,0.7,4.7,1.1,7.1,1.3c6.1,0.6,12-2.2,15.4-7.2C96.4,74.4,96.3,74.4,96.2,74.4 M105,61
					c-1.4,1.7-3.1,3.2-5,4.4c-1.6,1.1-3.3,2-5.1,2.8c-2.3,0.9-4.4,2.2-6.3,3.7l-0.4,0.3c-0.1,0-0.1,0-0.1-0.1s3-3.1,3.9-9.4
					c0.1-2.3,0.5-4.5,1-6.7c0-0.1,0-0.1,0-0.2c-2.1,2.6-3.7,5.5-4.8,8.6l-1.8,5.1c-0.7,2.3-2,4.4-3.7,6.1l-0.2,0.2c0,0,0,0.1,0,0.1
					c0.2,0,0.4-0.1,0.6-0.1l5.8-1.2c3.2-0.5,6.2-1.8,8.8-3.7c2.7-1.9,4.8-4.5,6.3-7.4c0.4-0.8,0.7-1.6,1-2.4
					C105.2,60.9,105.1,60.9,105,61 M108.8,46c-0.9,2.7-2.5,5.2-4.6,7.2c-2.4,2.3-4.6,4.9-6.6,7.5c0,0.1-0.2,0-0.1-0.1
					c0.8-2.7,1-5.6,0.6-8.5c-0.4-2.4-1.4-5-1.7-7.9c0,0-0.1-0.1-0.1-0.1c0,0.1-0.1,0.2-0.1,0.3c-0.6,1.9-1,3.8-1.2,5.8
					c-0.1,2.4,0.3,5.5,0.1,7.9c-0.2,2.8-0.4,5.7-1.7,8.2c0,0.1,0,0.1,0,0.2l6-3.7c2.5-1.6,4.6-3.6,6.3-6c2.2-3.1,3.3-6.7,3.3-10.5
					c0-0.1,0-0.3,0-0.4C108.9,45.9,108.8,46,108.8,46"/>
				<path class="st0" d="M102.4,47.6C102.5,47.6,102.5,47.6,102.4,47.6C102.4,47.7,102.4,47.6,102.4,47.6c0-0.8,0-1.6-0.1-2.4
					c-0.2-2.8-1.9-5.1-3.4-7.5c-1-1.5-1.9-3.1-2.7-4.8c0,0-0.1-0.1-0.2-0.1c0,0.2,0,1.1,0.1,1.6c0.5,4,1.5,8,3,11.8
					c0.9,2.4,1.2,4.9,1,7.4c0,0.2,0,0.2,0.1,0.3c0.9-1.3,2.7-3.1,3.8-4.5s7.1-8.2,4.2-17.6c-0.1-0.4-0.3-0.8-0.5-1.2
					c0,0-0.1,0.1-0.1,0.1c0,6.8-3.3,9.7-4.6,14.3C102.7,46.1,102.5,46.9,102.4,47.6 M102.5,33.6l-0.6-1.6l-0.4-0.9
					c-1-1.8-2.4-3.4-4.1-4.6c-1.4-1.2-2.6-2.5-3.6-4c0,0-0.1,0-0.2,0h-0.1c0.1,0.3,1,3.3,1.6,4.7c1,1.9,2.2,3.8,3.6,5.4L99,33
					c1.7,2.3,3,4.8,3.9,7.5c0,0.1,0.1,0.1,0.1,0.1l1.7-5.2c0.6-1.8,1.1-3.7,1.5-5.6c0.6-4.5-0.8-10.2-3.4-13.4c0,0-0.1,0.1-0.1,0.2
					l0.1,0.4l0.2,0.6c0.5,2.4,0.6,5,0.1,7.4c-0.4,1.9-0.5,3.9-0.5,5.9c0,0.3,0.2,2.8,0.2,2.9s-0.1,0-0.2,0 M94.5,8.5
					c0.8,0.8,1.5,1.7,1.9,2.8c0.7,1.7,0.9,4.2,1.4,6.1l0.9,3.3c0,0.1-0.1,0.2-0.2,0.1c-1.5-1.8-3.3-3.3-5.4-4.5
					c-1.4-0.8-2.5-1.9-3.5-3.1l-0.5-0.7c0,0-0.1-0.1-0.2,0c0,0.1,0,0.2,0,0.3c0.5,2.2,1.5,4.3,3.1,6c1.3,1.2,2.7,2.3,4,3.4
					c1.7,1.4,3.3,3.1,4.8,4.8c0,0,0.1,0.1,0.1,0v-1.6l0.1-4.8V19c0-1.6-0.3-3.3-0.9-4.8c-1-2.5-2.9-4.5-5.2-5.7
					c-0.1-0.1-0.3-0.1-0.5-0.2C94.4,8.3,94.4,8.4,94.5,8.5 M84.2,3.8c1.4,1.3,2.6,2.8,3.7,4.4c1,1.6,2.1,3,3.5,4.3
					c0.9,0.9,3.6,3,4.3,3.6c-0.1-0.8-1.4-6.5-4.9-9.3c-2-1.6-4.4-2.8-6.9-3.4c0,0.1,0,0.1,0,0.2L84.2,3.8 M28.2,81.7
					c2.3-0.2,4.7-0.6,6.9-1.3l5.4-1.3h0.1c0,0,0-0.1-0.1-0.1h-0.1c-2.7-0.7-5.2-2-7.4-3.8l-4.7-4.5L24,67v0.2
					c0.4,0.6,1.9,3.9,2.8,5.7c1.1,2.5,3.1,4.4,5.6,5.4c0.1,0.1,0,0.1-0.2,0.1c-2.8-0.4-5.7-0.6-8.6-0.7c-2.2,0-4.5-0.4-6.6-1
					c-1.5-0.5-2.9-1.2-4.2-2.2c-0.1,0-0.1,0-0.2,0c2,2.8,4.8,5,8,6.2C23.1,81.5,25.6,81.8,28.2,81.7 M25.9,75.8
					c0.2,0,0.3,0.1,0.6,0.1c0,0,0-0.1,0-0.1l-0.2-0.2c-1.7-1.7-2.9-3.8-3.7-6.1l-1.8-5.1c-1.1-3.1-2.7-6-4.8-8.6c0,0.1,0,0.1,0,0.2
					c0.6,2.2,0.9,4.4,1.1,6.7C18,68.9,21,71.9,21,72s0,0.2-0.1,0.1l-0.4-0.3c-1.9-1.5-4-2.8-6.3-3.7c-1.8-0.8-3.5-1.7-5.1-2.8
					c-1.9-1.2-3.6-2.7-5-4.4c0,0-0.1,0-0.1,0c0.3,0.8,0.6,1.6,1,2.4c1.5,2.9,3.7,5.5,6.4,7.4c2.6,2,5.6,3.3,8.8,3.7
					C22.1,74.9,24,75.4,25.9,75.8 M9.8,62.8l6,3.7c0,0,0.1-0.1,0.1-0.2c-1.3-2.6-1.5-5.4-1.7-8.2c-0.2-2.5,0.2-5.5,0.1-7.9
					c-0.2-2-0.6-4-1.2-5.9c0-0.1-0.1-0.2-0.1-0.3c0,0-0.1,0.1-0.1,0.1c0,0,0,0,0,0c-0.2,2.9-1.3,5.5-1.7,7.9
					c-0.4,2.8-0.2,5.7,0.6,8.5c0.1,0.1-0.1,0.2-0.1,0.1c-2-2.7-4.2-5.2-6.6-7.5c-2.1-2-3.7-4.4-4.6-7.1c0,0-0.1-0.1-0.2-0.1
					s0,0.2,0,0.4c0,3.7,1.1,7.4,3.3,10.5C5.2,59.1,7.3,61.2,9.8,62.8 M8.7,54c0.1-0.1,0.1-0.1,0.1-0.3c-0.2-2.5,0.1-5.1,1.1-7.4
					c1.4-3.8,2.4-7.7,3-11.8c0-0.5,0.1-1.4,0.1-1.6c-0.1,0-0.1,0-0.1,0.1c-0.8,1.7-1.7,3.3-2.7,4.8C8.6,40,7,42.4,6.8,45.2
					c-0.1,0.8-0.1,1.6,0,2.4c0,0,0,0.1-0.1,0.1c0,0,0,0,0-0.1L6,45.2c-1.4-4.6-4.6-7.5-4.6-14.3c0,0-0.1-0.1-0.1-0.1
					c-0.2,0.4-0.3,0.8-0.5,1.2c-2.9,9.4,3,16.2,4.2,17.6S7.8,52.7,8.7,54 M4.5,35.3l1.7,5.2c0,0,0.1,0,0.1-0.1
					c0.9-2.7,2.3-5.2,3.9-7.5l0.3-0.4c1.4-1.7,2.6-3.5,3.6-5.4c0.6-1.4,1.5-4.4,1.6-4.7h-0.1c-0.1,0-0.1,0-0.2,0
					c-1,1.5-2.2,2.8-3.6,4c-1.7,1.2-3.2,2.8-4.2,4.7c-0.1,0.3-0.3,0.6-0.4,0.9l-0.6,1.7c0,0-0.1,0.2-0.1,0s0.2-2.5,0.2-2.9
					c0-2-0.2-4-0.6-5.9c-0.5-2.5-0.4-5,0.1-7.4c0-0.2,0.1-0.4,0.2-0.6c0-0.1,0.1-0.3,0.1-0.4c0-0.1,0-0.1-0.1-0.2
					c-2.6,3.2-4.1,9-3.5,13.4C3.4,31.6,3.9,33.5,4.5,35.3 M8.1,20.7l0.1,4.8L8.2,27h0.1c1.4-1.8,3-3.4,4.7-4.9l4-3.4
					c1.6-1.7,2.6-3.8,3.1-6c0-0.1,0-0.2,0-0.3H20l-0.5,0.7c-0.9,1.2-2.1,2.3-3.4,3.1c-2.4,1.5-4,2.6-5.4,4.5
					c-0.1,0.1-0.2,0.1-0.1-0.1l0.9-3.3c0.5-1.9,0.7-4.4,1.4-6.1c0.4-1,1.1-2,1.9-2.8c0-0.1,0-0.1,0-0.2c-0.2,0-0.3,0.1-0.5,0.2
					C11.8,9.7,10,11.8,9,14.2c-0.6,1.5-1,3.1-0.9,4.8L8.1,20.7 M13.4,16L13.4,16l4.4-3.6c1.3-1.3,2.5-2.7,3.5-4.3
					c1-1.6,2.3-3.1,3.7-4.4l0.3-0.3c0-0.1,0-0.1,0-0.2c-2.5,0.6-4.9,1.7-6.9,3.4C14.7,9.5,13.5,15.2,13.4,16 M53.6,47
					c0.3-0.4-0.4-0.7-0.6,0S53.3,47.5,53.6,47 M61.2,29.4c-0.3-0.1-1.4,1.2-1.2,1.4C60.5,30.5,60.9,30,61.2,29.4 M61.4,29.2
					c0.2,0.1,0.9-0.3,0.8-0.4s-1-0.5-1-0.3C61.2,28.9,61.3,29.1,61.4,29.2 M74.9,41.6c0.4-0.1,0.3-0.7,0-0.7s-0.7,0.5-0.6,0.5
					S74.7,41.7,74.9,41.6 M70,28.3c-0.3,0-0.4,0.3-0.1,0.5c0.3,0.1,0.5,0,0.7-0.1c0.2-0.1,0.4-0.3,0.4-0.6s-0.4-0.7-0.2-0.9
					s0.5,0.1,0.7,0s0.3-0.3,0.3-0.5s-0.1-0.8-0.5-0.8s-0.8,0.8-0.8,0.8c-0.1,0.2-0.1,0.5,0,0.7C70.6,27.8,70.5,28.3,70,28.3"/>
				<path class="st0" d="M76.6,28.4c0,0.2,0.5,1.5,0.6,1.8s0.2,1.4,0.4,1.3s0.2-0.7,0.1-1c-0.1-0.7-0.3-1.5-0.5-2.1
					c-0.1-0.4-0.8-1.9-1-1.8s0.3,1,0.4,1.4S76.5,28.2,76.6,28.4 M73.1,11.4c0.3,0.1,0.3-0.5-0.2-0.9s-1.3-0.2-1.1,0
					C72.2,10.8,72.6,11.2,73.1,11.4 M58.1,7.1c-0.7-0.4-0.1-1-0.6-1.4c-0.6-0.2-1.2-0.1-1.6,0.3c-0.5,0.6,0.6,0.4,0.9,0.6
					s1.3,0.9,1.4,0.8S58.2,7.1,58.1,7.1 M62.1,5.1c-0.9-0.4-4.2-0.4-4.1,0.5s1.9,0,2.4,0S62.9,5.5,62.1,5.1 M53,43.7
					c-0.2-0.1-0.5,0.1-0.6-0.1s-0.3-0.1-0.3,0s-0.1,0.3,0.1,0.5c0.2,0.2,0.6,0.2,0.8,0C53.1,44,53.1,43.8,53,43.7 M51.1,37
					c0.3,0,0.3-0.2,0.4-0.2s0,0.2,0.3,0.2s0.6-0.7-0.3-0.7C50.8,36.3,50.9,37,51.1,37 M52.3,37.8c-0.5-0.1-0.4,0.2-0.8,0.2
					c-0.6,0.1-0.1-0.4-0.3-0.6c-0.1-0.1-0.4,0.4-0.5,0.7c0,0.2,0,0.6,0.2,0.7l1.9,0.2C53.2,39,52.8,37.9,52.3,37.8 M46.1,44.3
					c0.2,0,0.3-0.6,0.2-0.9s-0.7-0.1-0.7,0.1S46,44.3,46.1,44.3 M38.1,44.3c0-0.2,0-1-0.2-1.2s-0.2,0.1-0.3,0.1s-0.1-0.4-0.2-0.4
					s0,0.6,0.2,1S38.1,44.8,38.1,44.3 M37.9,42.5c0.2-0.6,0.3-1.2,0.3-1.8c0-0.5-0.3-0.9-0.4-0.9s0,0.3,0.1,0.8c0,0.5-0.2,1-0.3,1.5
					C37.6,42.2,37.8,42.7,37.9,42.5"/>
				<path class="st0" d="M27.7,64.9c14.9,14.9,38.9,14.9,53.8,0s14.9-38.9,0-53.8s-38.9-14.9-53.8,0S12.8,50.1,27.7,64.9 M18.2,38.8
					H24c0.1,3,0.6,5.9,1.5,8.7c-0.3-0.1-0.6-0.2-0.9-0.4c-0.4-0.2-0.7,0.1-0.8,0.1c-0.4,0-0.9-0.3-0.9,0s0.4,0.1,0.4,0.3
					s-1,0.2-1.1-0.2s-0.3-0.8-0.4-0.3s-0.5,0.4-0.7,0.5c-0.1,0.1-0.2,0.3-0.2,0.5c0,0.2-0.5,0.1-0.5,0.4s0.3,0.4,0.4,0.7
					s0.4,0.5,0.2,0.6s-0.1-0.1-0.3,0s0.9,3.1,1.1,3s-0.3-1-0.3-1.4s0.1-0.5,0.4-0.7s1.1,1.2,1.4,1s-0.1-0.4,0.2-0.5s1.2,1.3,1.5,0.9
					c0.2-0.3,0.4,0.2,0.4,0.3c0.3,0.5,0.8,0.5,1.1,1.1s1,1.7,1.5,1.7s0.2-0.5,0.4-0.5s0.4,0.7,0.7,1.1c0.2,0.3,0.5,0.5,0.9,0.6
					c0.7,0.9,1.5,1.8,2.3,2.7l-4.1,4.1C21.9,56.7,18.3,48,18.2,38.8 M51.3,30.5l-0.4,0.2c-0.6,0.3-1.1,0.6-1.5,1l-4.1-4.1
					c2.4-2.1,5.4-3.4,8.5-3.5v5.8c-0.7,0.1-1.4,0.2-2.1,0.5c0.2-0.4,0.6-0.8,0.6-0.8S51.6,30,51.3,30.5 M48.2,40
					C48.2,40,48.2,40.1,48.2,40c0,0.1,0,0.2,0,0.2c0-0.2-0.1-0.3-0.2-0.5c-0.1-0.1-0.2-0.2-0.3-0.2c-0.1,0-0.2,0-0.3,0h-0.2L47,39.6
					h-1.4c-0.2,0-0.3,0-0.3-0.1c-0.1-0.4,0.5-0.1,0.9-1.3c0.1-0.1,0.1-0.3,0.2-0.4l0.1-0.2l0.1-0.1c0,0,0.1-0.1,0.1-0.1
					c0.2-0.2,0.4-0.2,0.6-0.2h0.2l0.2,0.2L48,38c0.1,0.1,0.2,0.1,0.2,0.2c0.2,0.1,0.3,0.2,0.4,0.3l0.1,0.1c0,0,0,0.1,0,0.1
					c0.1,0.1,0.1,0.1,0.2,0.1h0.1c0.1,0,0.1,0,0.2,0h0.1c0.2-0.1,0.2,0,0.3,0c0,0,0,0.1,0,0.1c0,0.1,0,0.1-0.1,0.2
					c0,0.1-0.1,0.1-0.1,0.2c-0.1,0.1-0.2,0.2-0.3,0.2c-0.2,0-0.4-0.1-0.5-0.1c-0.1,0-0.2,0-0.2,0.1V40 M37.4,49.6
					c-0.3-0.5-0.4-1.2-0.4-1.8c0-0.6-0.2-1.2-0.5-1.7c-0.1-0.4-0.2-0.8-0.2-1.2c0-0.7-0.6-0.5-0.6-0.7s0.5,0,0.5-0.2s-0.6-1-1.1-1.2
					s-0.3-0.5-0.3-0.8c0-0.3,0-0.6-0.2-0.8c-0.1-0.4,0-1.1,0.5-1.1c0.2,0,0.5,0.2,0.8,0s0.1-0.8,0.1-1.3h2.8c0,0.4,0.1,0.9,0.1,1.3
					c-0.2,0.1-0.3,0.3-0.2,0.4c0.1,0.1,0.2,0.2,0.3,0.1c0.5,2.9,1.8,5.6,3.8,7.8l-4.1,4.1c-0.3-0.3-0.6-0.7-0.9-1.1
					c0-0.1,0-0.2,0-0.3c0-0.7-0.5-1.1-0.7-1.7 M33.5,42.6c-0.3-1.2-0.4-2.5-0.5-3.8h2.4c-0.2,0.3-0.7,0.6-0.8,0.9s-0.7,1.3-0.3,1.7
					C35.2,42.4,34.1,42.8,33.5,42.6 M34,57.4l-0.5,0.5c-0.2-0.2-0.5-0.5-0.7-0.7C33.2,57,33.6,57.1,34,57.4 M40.2,31.7
					c-0.1,0-0.1,0.1-0.2,0.1c-0.3,0.3-1.1,0.2-1,0.5s2.2-0.7,2.2-0.5s-0.9,0.5-1.5,0.8s-0.8,0.8-1.8,0.8c-0.5,0-0.7,0.4-0.9,0.7
					c-0.3,0.4-0.5,0.8-0.7,1.2c0,0.6-0.1,1.2-0.4,1.8h-2.9c0.2-5.1,2.2-10,5.7-13.8l4.1,4.1C41.8,28.8,40.9,30.2,40.2,31.7 M44,28.7
					l3.6,3.6c-0.1,0-0.2,0-0.4,0c-0.4,0-0.4-0.3-0.7-0.3c-0.6,0.1-0.7,0.3-0.8,0.2c-0.4-0.4-0.9-0.7-1.5-1c-0.7-0.2-1.4-0.2-2,0.1
					c-0.1,0-0.1,0.1-0.2,0.1C42.7,30.5,43.4,29.6,44,28.7 M39,36c0,0.4-0.1,0.8-0.1,1.2h-2.1c-0.1-0.3,0-0.6,0.2-0.9
					c0.2-0.4,0.7-0.6,1.2-0.5C38.4,35.8,38.7,35.9,39,36 M40.8,40.7L41,41c0.2,0.2,0.4,0.4,0.6,0.3s0.7,0,0.8,0
					c0.3,0.1,0.5,0.3,0.7,0.5c0.2,0.3,0.6,0.1,0.9,0.3s0.6,0.4,0.2,0.6s0.4,0.6,0.5,0.6s0.2-0.2,0.2-0.5c0-0.1,0.2-0.5,0.5-0.4
					s1.2,1.2,1.5,0.8s0.1-0.9,0.2-1.1c0-0.1,0.1-0.2,0.2-0.2c0.3,0.5,0.5,0.9,0.9,1.3l-4.1,4.1C42.4,45.5,41.2,43.2,40.8,40.7
					 M44,26.4l-4-4.1c3.8-3.5,8.7-5.5,13.8-5.7v5.8C50.2,22.5,46.8,23.9,44,26.4 M38.8,21.1L34.7,17c5.2-4.9,12-7.7,19.1-7.9v5.8
					C48.2,15.1,42.8,17.3,38.8,21.1 M37.6,22.2c-3.8,4.1-6,9.4-6.2,15h-5.8c0.2-7.1,3-13.9,7.9-19.1L37.6,22.2z M31.4,38.8
					c0,1.1,0.1,2.1,0.3,3.2c-0.1,0-0.1-0.3-0.4-0.2s-1.4,2-1.9,2.8c-0.4,0.7,0.2,2.2-0.4,2.7c-0.6,0.2-1.2,0.3-1.8,0.3h-0.1
					c-1-2.8-1.5-5.7-1.6-8.6L31.4,38.8z M53.7,74.4c-9.1-0.2-17.8-3.8-24.3-10.1l4.1-4.1c5.5,5.2,12.7,8.2,20.2,8.4L53.7,74.4z
					 M53.7,67c-7.1-0.2-13.9-3-19.1-7.9l0.7-0.7c0.1,0.1,0.3,0.2,0.5,0.3c0.4,0.2,0.9,0.3,1.4,0.2c0.4-0.1,1.2-0.8,1.7-0.8
					s1.3,0.2,1.8-0.1s-0.3-1.3-0.6-1.8c-0.1-0.1-0.1-0.2-0.2-0.3c3.9,3.3,8.9,5.2,14,5.3L53.7,67z M53.7,59.5
					c-5.1-0.2-10-2.2-13.8-5.7l4.1-4.1c1.9,1.7,4.2,3,6.8,3.6c-0.9,0.4-1.3,1-1.2,1.5S49,55.6,49,56.2s0.8,1,0.9,1.6
					c0.1,0.3,0.8,0.8,1.4,1.2c0.8,0.2,1.6,0.3,2.3,0.2L53.7,59.5z M53.5,51.5c-0.3-0.2-0.5,0.2-0.9,0.4c-2.8-0.4-5.3-1.6-7.4-3.4
					l4.1-4.1c1.3,1,2.8,1.7,4.4,1.8c0,0.2,0.2,0.4,0.2,0.8s-0.3,0.6-0.2,0.8s1,0,1.1-0.3s-0.3-0.5-0.4-0.8c-0.1-0.2-0.1-0.3-0.2-0.5
					h0.3c0.3,0,0.6,0,0.9-0.1c0.1,0,0.2-0.1,0.2-0.2c0-0.1,0.1-0.2,0.1-0.3c0-0.1,0.1-0.1,0.1-0.2v0l0.1,0.1
					c0.1,0.2,0.3,0.8,0.5,0.7s0.3-1,0.2-1.2c-0.2-0.3-0.2-0.6,0-0.9c0-0.1,0.1-0.7,0.3-0.6s0,0.6,0,0.8c0,0.3,0.2,0.7,0.5,0.5
					c0.2-0.1,0.4-0.4,0.6-0.3s-0.5,0.3-0.6,0.5s0.3,0.3,0.2,0.4s-0.2,0-0.3,0.1s0.2,0.7,0,0.8s-0.9,0.3-1.1,0.4s-0.4-0.1-0.3-0.2
					s0-0.5-0.2-0.5s-0.2,0.1-0.2,0.3s0.2,0.5,0.2,0.6s-0.3,0.2-0.5,0.3c-0.2,0.3-0.5,0.6-0.8,0.8c-0.3,0.2-0.9,0.2-0.9,0.4
					s0.3,0.2,0.4,0.3c0.2,0.3,0.3,0.7-0.1,0.9s-0.9-0.3-1.1-0.2s-0.3,0.6-0.4,1.2s1.1,0.8,1.7,0.5c0.4-0.2,0.3-0.8,0.7-1
					s0.3-0.6,0.7-0.5s0.3-0.3,0.7-0.3s0.4,0.3,0.9,0.4c0.8,0.2,0.8,0.8,0.9,0.5s0.2-0.5-0.4-0.7s-0.9-0.9-0.4-0.7
					c0.6,0.3,1.1,0.3,1.2,0.6s0.7,0.2,0.8,0.5c0.1,0.5,0.5,0,0.2-0.3s-0.2-0.4,0-0.6s0.3,0.1,0.6-0.3s-0.1-0.3-0.2-0.5
					s0-1.3,0.4-1.1s0.8-0.1,0.6-0.2s0.1-0.7,0.2-0.7s0,0.4,0.1,0.5s1.1-0.3,1.2,0.2s-0.7,0.8-0.9,0.8c-0.4,0-0.7,0.4-1,0.8
					s-0.6,0.5-0.4,0.9s0.6,0.3,1,0.1s0.7-0.5,0.9-0.6c0.4-0.2,0.7,1,0.5,1.2s-0.6,0.3-0.8,0.5c-0.6,0.3-1.2,0.6-1.9,0.6
					c-0.4,0.1-0.4,0.2-0.5,0.6s-1.9,0.1-2.3,0.1s0.3-0.9-0.3-0.8s-1.2,0.2-1.8,0.3C54.6,51.4,54,51.9,53.5,51.5 M58.8,60.8
					c0.5,0.2,1,0.6,1.3,1c0.3,0.5,0.4,0.7,0.2,1.2c-0.5,0.9-0.3,1.5,0.7,1.8c0.6,0.2,0.8,0.8,1.2,1.2c-2.2,0.6-4.5,0.9-6.8,1v-5.8
					C56.5,61.1,57.7,61,58.8,60.8 M55.4,59.6v-0.7c1.3-0.2,1,0.6,1.9,0.3c0.3-0.1,0.6,0,0.8,0.2C57.2,59.4,56.3,59.5,55.4,59.6
					 M55.4,74.5v-5.9c3-0.1,6-0.6,8.9-1.6c0.1,0.1,0.2,0.1,0.3,0.1c0.4,0,0.8-0.2,1.1-0.4c1-0.4,1.9-0.9,2.7-1.5
					c2.6-1.3,5.1-3.1,7.2-5.1l4.1,4.1C73.2,70.6,64.5,74.2,55.4,74.5 M71.6,22.2l1.4-1.4c0.4,0.4,0.8,0.7,1.4,0.8
					c0.5,0.1,0.7,0.3,0.8,0.8s0.6,0.7,1.1,0.8s0.8,0.7,1.2,0.7s1.7,1.8,2.2,2.4c0.3,0.3,0.7,0.8,1,0.4s0.3-0.3,0.5-0.4
					c1.5,3.4,2.4,7.2,2.5,10.9h-5.8c0-1.3-0.2-2.6-0.5-3.9c0.2-0.4,0.3-0.8,0.3-1.3c0-0.4-0.4-0.6-0.7-0.3c-0.2-0.8-0.5-1.5-0.8-2.2
					c-0.1-0.4-0.2-0.9-0.3-1.3c0-0.1-0.2-0.2-0.4-0.4c-0.2-0.4-0.3-0.7-0.5-1c0.3-0.2,0.4-0.7,0-0.6c-0.6,0.1-0.2-0.3-0.4-0.5
					s-0.2,0-0.3,0.1c-0.8-1.2-1.6-2.3-2.6-3.4c0,0,0,0,0-0.1C71.5,22.3,71.5,22.2,71.6,22.2 M75.1,56.1c-0.2-0.4-0.3-0.9-0.5-1.3
					c-0.1-0.4-0.9-0.4-0.9-0.2c0,0.4,0,0.8-0.1,1.2v0.1l-2.1-2.1c3.8-4.1,6-9.4,6.2-15h5.8c-0.2,7.1-3,13.9-7.9,19l-0.3-0.3
					C75.4,57.1,75.3,56.6,75.1,56.1 M70.3,60.1c0.3-0.5,0.9-1.4,1.2-1.9s-0.8-1.2-1.4-1.4s-0.6-0.5-0.6-1c0.3-0.2,0.6-0.5,0.9-0.8
					l4.1,4.1c-1.4,1.3-2.8,2.4-4.4,3.4c-0.1-0.2,0.6-0.9,0.8-1.2S70.1,60.6,70.3,60.1 M72.8,36.2c-0.5-0.7,0.2-0.8,0.9-1.1
					c0.4-0.2,0.9,0.1,0.9-0.1s0.2-0.6,0.4-0.7c0.2-0.1,0.5-0.3,0.6-0.5c0,0.2,0.1,0.4,0.1,0.6c-0.2,0.4-0.3,0.7-0.3,1.1
					c0,0.3,0,0.7,0.3,0c0-0.1,0.1-0.1,0.1-0.2C76,36,76,36.6,76,37.2h-4.3c0,0,0,0,0-0.1C72,36.6,73.1,36.7,72.8,36.2 M73.6,28
					c0,0,0,0.1-0.1,0.1c-0.1,0.1-0.6-0.7-0.6-0.1s0.2,0.8,0.6,0.9s0.2,0.3,0.5,0.4c0.1,0,0.3,0.1,0.4,0.2c0.5,1.1,0.8,2.2,1.1,3.4
					c-0.2,0.1-0.3,0.2-0.4,0.3c-0.2,0.2-0.1,0.6-0.3,0.9c-0.3,0.5-0.4,0.8-1.2,0.6c-0.5-0.2-0.1-0.8,0-1.3s0.3-0.4,0.3-0.7
					s-1-1.4-1.5-1c-0.5,0.4-0.4,0.8-0.8,1.2c-0.2,0.2-0.4,0.2-0.7,0s-0.4-0.4-0.3-0.6s-0.7-1.1-1-1.5c-0.4-0.5-1-0.8-1.6-0.8
					c-0.5-0.9-1.2-1.8-1.9-2.6l4.1-4.1C71.6,24.8,72.7,26.3,73.6,28 M66.7,30.8l-0.2,0.3c-0.1,0.2-0.6-0.2-0.7-0.1s0.7,1.1-0.1,0.8
					s-0.3-0.3-0.3-0.6s-0.7-0.5-0.3-0.7s0-0.5,0.4-0.6s0.3-0.5-0.2-0.6s-0.4,1.1-0.7,0.9c-0.3-0.1-0.6-0.1-0.9-0.1l1.4-1.4
					c0.2,0.1,0.3,0.1,0.5,0.1C65.8,29.6,66.3,30.2,66.7,30.8 M65.1,51.1c0.6,0.1,1.3,0.2,1.9,0.4c0.4,0.2,0.7,0.6,1,0.1
					c0.6-0.9,1-1.9,1.2-3c0.2-1.5-0.1-2-0.3-2s-0.6,0.4-1,0.4c-0.2,0-0.2,0.4-0.2,0.7s-0.4,0.6-0.5,0.4S66.9,48,67,48.2
					s-0.8,0.1-1.2-0.1c-0.6-0.3,0.7-0.3,1.3-0.8c0.5-0.4,1-0.9,1.5-1.4c0.3-0.5,0.3-1.1,0.8-1.5s1.3-0.3,1.4-0.9s0.2-0.5,0.5-0.4
					s3.1-0.1,3.1-1c0-0.4-0.6-0.9-1.2-1c-0.4,0-0.5-0.8-0.7-1.2c-0.2-0.4-0.4-0.8-0.7-1.2H76c-0.2,5.1-2.2,10-5.7,13.8l-0.1-0.1
					v-0.4c0.1-0.8-0.5-2.1-0.7-1.9s0,0.2-0.6,1.1c-0.2,0.3-0.5,0.8-0.9,0.8s-0.4-0.2-1-0.1c-0.5,0.1-1.1,0.1-1.6,0
					c-0.9-0.3-1.8-0.7-2.7-1.3c0.1-0.1,0.4,0.1,0.4-0.2S64.7,51,65.1,51.1 M80.8,63.2l-4.1-4.1c5.2-5.5,8.2-12.7,8.4-20.2H91
					C90.8,48,87.2,56.6,80.8,63.2 M91,37.2h-5.9c-0.1-4.3-1.1-8.5-3-12.4l0.1-0.1c0.4-0.4-1.9-3.4-2.3-3.7s-0.8-0.8-1.3-1.3
					c-0.8-0.8-1.6-1.7-2.2-2.6l4.3-4.3C87.2,19.4,90.8,28.1,91,37.2 M55.4,1.6c9.1,0.2,17.8,3.8,24.4,10.1l-4,4
					c-0.2-0.1-0.4-0.2-0.3-0.4c0.2-0.3-0.3-0.3-0.4-1.1c-0.2-0.8-0.8-1.5-1.5-1.9c-0.5-0.3-0.8-0.7-1.3-0.9s-1.5-0.8-2-0.6
					c-0.3,0.1-0.7,0.2-1,0.2C65,8.7,60.3,7.5,55.5,7.4L55.4,1.6z M55.4,9.1c4.3,0.1,8.4,1.2,12.3,3.1c0.1,0.6,0.4,1.3,0.8,1.8
					c0.2,0.5,0.5,0.9,0.8,1.4c0.3,0.3,0.1,0.9,0.2,1.4c0,0.2,0.2,0.4,0.3,0.6c0,0.3,0,0.5,0,0.8c0,0.1,0.4,0.1,0.7-0.1
					s0.5-0.6,0.9-0.5s0.9,0.9,1.2,1.4l-1.9,1.9c-0.2-0.4-0.4-0.9-0.3-0.9s0.3,0.1,0.4,0.1c0.4,0-0.3-0.3-0.3-0.4
					c-0.3-0.3-0.3-0.7-0.7-1s-1-0.1-1.2-0.5c-0.4-0.7-0.9-1.3-1.6-1.8c-0.1,0,0.8,1.1,0.5,1.3S66.1,17,66,17.2s1.2,0.7,1.6,1.1
					c0.2,0.2,0.6,0.8,1,1.3c-3.8-2.9-8.4-4.5-13.2-4.7L55.4,9.1z M55.4,16.5c5.1,0.2,10,2.2,13.8,5.7l-4.1,4.1
					c-2.7-2.4-6.1-3.8-9.7-4L55.4,16.5z M55.4,24c3.2,0.2,6.2,1.4,8.5,3.5l-0.2,0.2l-0.2-0.1c-0.5-0.2-1.5,0.8-1.3,0.9
					s0.6-0.4,0.8-0.3h0.1L61.4,30c-0.5,0.2-1,0.6-1,0.9c0,0,0,0,0,0.1l-0.6,0.6l-0.3-0.3c-0.5-0.4-1-0.7-1.6-0.9
					c0.3-0.2,0.4-0.5,0.5-0.9c0-0.6-0.2-0.4-0.5-0.1s-0.6,0.4-0.8,0.7c-0.5-0.2-1.1-0.3-1.6-0.3V24z M54.7,31.4
					c0.1,0.2,0,0.4-0.1,0.5c0,0,0,0,0,0c-0.2,0.2-0.8-0.5-0.9,0.1c-0.2,0.6,0.4,0.3,0.4,0.4c0.3,0.4,0.7,0.6,1.2,0.7
					c0.4,0,1,0,1,0.4c0,0.2,0.5,0.2,0.6,0.4c0,0.3,0.3,0.8,0.5,0.7c0.2-0.1,0.5,0.1,0.6,0.3c0.1,0.2,0,0.3-0.1,0.5
					c-0.3,0.3,0.3,0.2,0.4,0.8s-0.5,0.2-0.6,0.6c-0.2,0.3-0.4,0.5-0.6,0.8c-0.1,0.1,0.1,0.3,0.2,0.2s0.3-0.4,0.6-0.4
					s0.6,1.1,0.9,1.2s0.2,0.5,0.3,0.6s-0.5,0-0.4,0.2s0.7,0.3,0.7,0.6c-0.1,0.3-0.3,0.6-0.7,0.6c-0.3,0-0.8-0.7-0.8-0.5
					s0.2,0.8,0.5,0.8s1-0.3,0.7,0.1s-0.2,1-0.4,1s-0.3,0-0.1,0.3c0.1,0.3,0,0.6-0.2,0.9c-0.2,0.2-0.7,0-0.7-0.1s0.6-0.1,0.6-0.4
					s-0.3-0.4-0.9-0.2c-0.3,0.1-0.4-0.1-0.6-0.1s-0.8,0.7-0.8,0.8C56,43.3,56,43.5,56,43.7c0,0.4-0.1,0.7-0.3,1
					c-0.4,0.1-0.7,0.1-1.1,0.1c-1.6,0-3.2-0.7-4.4-1.7c0.2-0.1,0.5-0.2,0.8-0.2c0.3,0.1,0.4-0.1,0.6-0.2s0.7,0.2,1,0s1-1.5,0.9-1.8
					s0.7-0.8,0.6-0.9s-0.2,0.1-0.2,0s0.2-0.1,0-0.5s-0.5-0.2-0.7-0.2c-0.3-0.2-0.8-0.3-0.9-0.2s-0.4-0.2-0.5-0.1
					c-0.1,0-0.3,0.1-0.3,0.3c-0.1,0.2,0.1,0.4,0.1,0.6c-0.1,0.4-0.7,0.7-0.7,1s-0.3,0.1-0.4,0.2s0,0.3-0.2,0.3s-0.5,0.5-0.7,0.9
					c-0.3-0.4-0.6-0.9-0.9-1.3c0.2-0.1,0.4-0.2,0.5-0.1c0.3,0.2,1.5-1.9,1.3-2.5s-0.5-0.2-0.8-0.1s-0.3-0.2-0.2-0.3s1.4-0.1,0.7-0.5
					c-0.3-0.2-1.1-0.2-1-0.5s0.5,0,0.6,0c0.5,0.2,0.8-0.8,1.1-0.8c0.5,0,0.3-1-0.2-0.7s-0.7,0.2-0.9,0.5s-0.7,0.7-0.7,0.3
					c0-0.2,1.1-0.8,1.3-1.1c0.2-0.2,0.4-0.5,0.5-0.8c0.1-0.3,1.5-0.5,1.8-0.7c0.2-0.2,0.4-0.5,0.4-0.8c0-0.3-0.4-0.2-0.5-0.4
					s0.5,0,0.5-0.3s-0.5,0-0.7-0.2c0-0.1,0-0.1,0.1-0.2C53.4,31.5,54,31.4,54.7,31.4l0.2,0 M53.8,1.6v5.8
					c-7.5,0.2-14.7,3.2-20.2,8.4l-4.1-4.1C36,5.4,44.7,1.8,53.8,1.6 M28.2,12.9l4.1,4.1c-5.2,5.5-8.2,12.7-8.4,20.2h-5.8
					C18.4,28.1,22,19.4,28.2,12.9"/>
			</g>
		</g>
	</g>
</g>
</svg>
